<svg version="1.2" xmlns="http://www.w3.org/2000/svg" viewBox="0 0 1730 1734" width="1730" height="1734">
	<title>Decor1-svg</title>
	<style>
		.s0 { fill: none;stroke: #53aedd } 
		.s1 { fill: none;stroke: #53aedd;stroke-width: 2 } 
		.s2 { fill: none;stroke: #53aedd;stroke-width: .8 } 
		.s3 { fill: none;stroke: #53aedd;stroke-width: 3 } 
		.s4 { fill: #53aedd;stroke: #53aedd } 
		.s5 { fill: none;stroke: #53aedd;stroke-width: 4 } 
		.s6 { fill: none;stroke: #53aedd;stroke-width: .5 } 
	</style>
	<path id="Layer" class="s0" d="m673.5 1734v-112-6.2h101.8l43.5-37.3h111.2"/>
	<path id="Layer" class="s0" d="m980.9 1633.9h-156.7l-48.9-18.1"/>
	<path id="Layer" class="s1" d="m670.1 1046.1h-288.4-66.2l-203.8-152.8"/>
	<path id="Layer" class="s1" d="m670.1 1117.2h-241.8l-53.2-71.1"/>
	<path id="Layer" class="s1" d="m1288.5 1278.8l-489.9 0.4-132.8-90.9-413.5 0.9"/>
	<path id="Layer" class="s1" d="m1122 1278.9l-116.2 120.3h-306.9l-131.1-108.9h-305.7"/>
	<path id="Layer" class="s0" d="m527.2 845.2l-127.4 0.9-56.4-59.7h-126.7v-8.6-138.6"/>
	<path id="Layer" class="s0" d="m343.4 786.4l55.8-53.6h128"/>
	<path id="Layer" class="s2" d="m506.8 772v45.8h-99.9l-19.8-19.8v-19.2l22-18.8h97.7v12z"/>
	<path id="Layer" class="s3" d="m617.7 1331.7l-348.5-6"/>
	<path id="Layer" class="s4" d="m678.2 1061.3c-10 0-18.2-7.7-18.2-17.2 0-9.5 8.2-17.2 18.2-17.2 10 0 18.1 7.7 18.1 17.2 0 9.5-8.1 17.2-18.1 17.2z"/>
	<path id="Layer" class="s4" d="m678.2 1134.3c-10 0-18.2-7.6-18.2-17.1 0-9.5 8.2-17.2 18.2-17.2 10 0 18.1 7.7 18.1 17.2 0 9.5-8.1 17.1-18.1 17.1z"/>
	<path id="Layer" class="s4" d="m527.2 855.4c-5.6 0-10.2-4.5-10.2-10.2 0-5.6 4.6-10.2 10.2-10.2 5.7 0 10.2 4.6 10.2 10.2 0 5.7-4.5 10.2-10.2 10.2z"/>
	<path id="Layer" class="s2" d="m476.5 771.6h20v36.3h-20z"/>
	<path id="Layer" class="s2" d="m415.3 771.6h49.7v36.3h-49.7z"/>
	<path id="Layer" class="s4" d="m527.2 743c-5.6 0-10.2-4.5-10.2-10.2 0-5.6 4.6-10.1 10.2-10.1 5.7 0 10.2 4.5 10.2 10.1 0 5.7-4.5 10.2-10.2 10.2z"/>
	<path id="Layer" class="s4" d="m608.3 1348.9c-9.5 0-17.2-7.7-17.2-17.2 0-9.5 7.7-17.1 17.2-17.1 9.5 0 17.2 7.6 17.2 17.1 0 9.5-7.7 17.2-17.2 17.2z"/>
	<path id="Layer" class="s0" d="m989.3 1642.1c-4.5 0-8.2-3.7-8.2-8.2 0-4.5 3.7-8.2 8.2-8.2 4.5 0 8.2 3.7 8.2 8.2 0 4.5-3.7 8.2-8.2 8.2z"/>
	<path id="Layer" class="s4" d="m1542.5 1434.5c-4.5 0-8.2-3.6-8.2-8.1 0-4.6 3.7-8.2 8.2-8.2 4.5 0 8.2 3.6 8.2 8.2 0 4.5-3.7 8.1-8.2 8.1z"/>
	<path id="Layer" class="s0" d="m936.4 1586.7c-4.5 0-8.2-3.6-8.2-8.2 0-4.5 3.7-8.1 8.2-8.1 4.5 0 8.2 3.6 8.2 8.1 0 4.6-3.7 8.2-8.2 8.2z"/>
	<path id="Layer" class="s4" d="m1487.6 1196.5c-4.5 0-8.2-3.7-8.2-8.2 0-4.5 3.7-8.2 8.2-8.2 4.6 0 8.2 3.7 8.2 8.2 0 4.5-3.6 8.2-8.2 8.2z"/>
	<path id="Layer" class="s5" d="m1085.5 992c-34.5 0-62.4-27.8-62.4-62.2 0-34.4 27.9-62.3 62.4-62.3 34.5 0 62.3 27.9 62.3 62.3 0 34.4-27.8 62.2-62.3 62.2z"/>
	<path id="Layer" class="s1" d="m1085.5 1042.4c-62.4 0-112.8-50.4-112.8-112.6 0-62.3 50.4-112.6 112.8-112.6 62.3 0 112.7 50.3 112.7 112.6 0 62.2-50.4 112.6-112.7 112.6z"/>
	<path id="Layer" class="s1" d="m1381.9 1618c-17.3 0-31.4-14-31.4-31.3 0-17.3 14.1-31.3 31.4-31.3 17.3 0 31.3 14 31.3 31.3 0 17.3-14 31.3-31.3 31.3z"/>
	<path id="Layer" class="s2" d="m1381.9 1633.6c-26 0-47-21-47-46.9 0-25.9 21-46.9 47-46.9 26 0 46.9 21 46.9 46.9 0 25.9-20.9 46.9-46.9 46.9z"/>
	<path id="Layer" class="s0" d="m877.7 737.1c-16.5 0-29.8-13.3-29.8-29.7 0-16.5 13.3-29.7 29.8-29.7 16.4 0 29.7 13.2 29.7 29.7 0 16.4-13.3 29.7-29.7 29.7z"/>
	<path id="Layer" class="s0" d="m1381.9 1606.7c-11.1 0-20.1-8.9-20.1-20 0-11.1 9-20 20.1-20 11.1 0 20 8.9 20 20 0 11.1-8.9 20-20 20z"/>
	<path id="Layer" class="s3" d="m1109.5 1731.5v-269.2h303.7v-73.7h198.4"/>
	<path id="Layer" class="s1" d="m1142.3 1730.8v-233.6l316 1.9v-72.7h84.2"/>
	<path id="Layer" class="s3" d="m390.9 1690.2l200.2-134.8h167.1"/>
	<path id="Layer" class="s3" d="m828.3 751.3l-168.3 128.8-288.7 5.5-67.4-77.7h-201.9"/>
	<path id="Layer" class="s0" d="m877.7 774.8c-37.3 0-67.5-30.2-67.5-67.4 0-37.3 30.2-67.5 67.5-67.5 37.3 0 67.5 30.2 67.5 67.5 0 37.2-30.2 67.4-67.5 67.4z"/>
	<path id="Layer" class="s6" d="m537.5 1730.8v-64l32.5-22 49.1-33.1"/>
	<path id="Layer" class="s6" d="m626.7 1646.4h-59.1"/>
	<path id="Layer" class="s0" d="m345.8 1421.9l34.8 38.2h99.3l0.9 169.6"/>
	<path id="Layer" class="s0" d="m395.4 1548.7l0.5 96.9h-53.6"/>
	<path id="Layer" class="s0" d="m721.1 1633.9v37.3h73.8v59.6"/>
	<path id="Layer" class="s0" d="m782.1 1730.8v-40.6h-74.5v-45.4"/>
	<path id="Layer" class="s6" d="m479.9 1525.8h94.7v-140.4h195.8l63.9-36.5h160.7"/>
	<path id="Layer" class="s2" d="m791.4 993.3h-208.6v-107.7"/>
	<path id="Layer" class="s2" d="m983.4 401.5h-420v-210.5l-176.3-146.5"/>
	<path id="Layer" class="s1" d="m279.3 343.5h227.5v271.2"/>
	<path id="Layer" class="s0" d="m670.1 694.8h-264.7v-293.3h-138.8"/>
	<path id="Layer" class="s0" d="m527.2 694.8l159.8-170.4h435"/>
	<path id="Layer" class="s3" d="m340.1 87.1l166.7 122.8v77.4"/>
	<path id="Layer" class="s0" d="m695.8 5v262.5h-66.2v53.3l-39.7 30.9"/>
	<path id="Layer" class="s0" d="m1258.7 171.6h-518.4v-168"/>
	<path id="Layer" class="s0" d="m1109.2 300.6h-129.1l-137.7-129"/>
	<path id="Layer" class="s0" d="m1117.7 171.6v-92.1h93.7"/>
	<path id="Layer" class="s0" d="m255 548.2h51.1v146.6l57.2 22.3"/>
	<path id="Layer" class="s0" d="m159.3 673.4v77.9"/>
	<path id="Layer" class="s0" d="m191.9 767.1h-58.2v-72.8"/>
	<path id="Layer" class="s0" d="m1043.9 1732.2v-305.8l112.1-111.8h205.9l125.7-126.3"/>
	<path id="Layer" class="s1" d="m999.5 96.3h-217.4v-93.3"/>
	<path id="Layer" class="s1" d="m647.1 96.3h-68.8l-124.8-93.3"/>
	<path id="Layer" class="s2" d="m269.2 1217.7h52.5v38.9h-52.5z"/>
	<path id="Layer" class="s2" d="m208.3 880.8h71v30.8h-71z"/>
	<path id="Layer" class="s2" d="m486.5 948h63.6v19.7h-63.6z"/>
	<path id="Layer" class="s2" d="m239.4 647.2l26-20.9h13.9v104.4h-39.9v-83.5z"/>
	<path id="Layer" class="s2" d="m178.4 671.3h22.2v77.9h-22.4l0.2-77.9z"/>
	<path id="Layer" class="s2" d="m239.4 740.4h40v12.9h-40z"/>
	<path id="Layer" class="s2" d="m477.5 119.7l25.4-24.6 71.7 58.4h72.5"/>
	<path id="Layer" class="s2" d="m464.3 287.3h-67.4l-11.4-17.2h-26.1v-84.9h-45.4"/>
	<path id="Layer" class="s2" d="m429.5 269l-44 1.1"/>
	<path id="Layer" class="s2" d="m1485.8 5.8v66.7 99.1h-53.5"/>
	<path id="Layer" class="s2" d="m1485.8 72.5l-53.5 0.4-21.3 14.7h-57.7"/>
	<path id="Layer" class="s2" d="m1432.3 72.9h-34.1"/>
	<path id="Layer" class="s6" d="m1485.8 21l-26.8 18.4h-48"/>
	<path id="Layer" class="s2" d="m1309.3 25h42.1v23.8h21.3"/>
	<path id="Layer" class="s6" d="m1440.1 25.7h-58.2v-19.9"/>
	<path id="Layer" class="s6" d="m1245.5 269.6l-61.1-0.6-98.9-34.3v-227.3"/>
	<path id="Layer" class="s6" d="m1198.2 223h-76.2v-35.8h-36.5"/>
	<path id="Layer" class="s6" d="m1036.8 138.5h-91.6l-37.8-42.2"/>
	<path id="Layer" class="s6" d="m1055.3 21h-71.9l-38.2 23.5h-54.4v-38.7"/>
	<path id="Layer" class="s6" d="m1437 1731.1v-56.8l78.5-51.5v-51.4"/>
	<path id="Layer" class="s6" d="m1208.6 1730.8v-50.8-15.6h56.3v-77.7h52"/>
	<path id="Layer" class="s6" d="m1350.5 1680h-141.9"/>
	<path id="Layer" class="s6" d="m1169.3 1680l63.8-50.6v-99.1h101.8"/>
	<path id="Layer" class="s6" d="m1169.3 1730.8v-116l31.2-25v-59.5"/>
	<path id="Layer" class="s6" d="m1169.3 1517v97.8"/>
	<path id="Layer" class="s6" d="m1479.6 1730.8v-38.8h43.6v-37.8"/>
	<path id="Layer" class="s2" d="m1122 1415.7v-25l38.3-41.8h200.4v66.8h-238.7z"/>
	<path id="Layer" class="s2" d="m1312.9 1359.6h37.6v46.6h-37.6z"/>
	<path id="Layer" class="s2" d="m1148.9 1406.2v-23.9l20.4-23.4h61.2v47.3h-81.6z"/>
	<path id="Layer" class="s0" d="m1258.7 366.1h-440.4v-358.7"/>
	<path id="Layer" class="s0" d="m670.1 67.8h-71.7v-62.9"/>
	<path id="Layer" class="s6" d="m791.4 253.8l-32.5-30.8v-51.4"/>
	<path id="Layer" class="s6" d="m1031.2 455l48.2-39.2h124.9"/>
	<path id="Layer" class="s1" d="m1542.1 28.3v306.2"/>
	<path id="Layer" class="s2" d="m1576.1 51.3v325.8"/>
	<path id="Layer" class="s6" d="m289.1 1446.6h47.3v-98.7h54.1 159.2"/>
	<path id="Layer" class="s6" d="m522.2 1389.7h-102.7l-44.7-41.8"/>
	<path id="Layer" class="s6" d="m647.7 1610.6h-29l21.2-33 56-0.1"/>
	<path id="Layer" class="s6" d="m453.1 1729.8l27.3-28.6v-31.4l69.3-52.8"/>
	<path id="Layer" class="s6" d="m522.2 1673.4l-41.8 27.8"/>
	<path id="Layer" class="s6" d="m453.1 1512.2v98.4h-57.5"/>
	<path id="Layer" class="s6" d="m314.9 1552.5l44.1-27.7v-31.4l53.9 0.9 37.5-20.3"/>
	<path id="Layer" class="s6" d="m443.1 1513.3h-47.5l-12.9-19.5"/>
	<path id="Layer" class="s6" d="m321.8 1378.1v32.2 21.7h-32.7"/>
	<path id="Layer" class="s6" d="m321.8 1420.9l-22.8-23.6v-49.4"/>
	<path id="Layer" class="s6" d="m453.1 1457.3v-36.4h64.5l19.5 21.5"/>
	<path id="Layer" class="s6" d="m528.7 1232.8h-82.7l-55.2 38.9h-134.9"/>
	<path id="Layer" class="s6" d="m469.2 1271.7h-78.4"/>
	<path id="Layer" class="s6" d="m255.9 1202.3h112.6v28.7h26.2"/>
	<path id="Layer" class="s6" d="m470.6 1165.2h-95.8l-41.5-33.7h-84.4"/>
	<path id="Layer" class="s6" d="m273.4 1045.1h-39.7v30h-58"/>
	<path id="Layer" class="s6" d="m233.7 1075.1h113.9l44.3 51"/>
	<path id="Layer" class="s6" d="m94.4 953.3h57.9l45.5 54.2v29.8h53.9"/>
	<path id="Layer" class="s6" d="m99.7 983.1h44.9l31.1 36.2v30"/>
	<path id="Layer" class="s6" d="m558.3 920.6h-177.4-43l-59.7-70.7h-163.6"/>
	<path id="Layer" class="s6" d="m526.8 1012.8h-83l-59.6-32.3v-24.5-35.4"/>
	<path id="Layer" class="s6" d="m466.2 947h-80.6-1.8"/>
	<path id="Layer" class="s6" d="m135.4 866.9l103.6-0.4"/>
	<path id="Layer" class="s6" d="m321.3 947h-72.4-26.9l-98.9-72.7"/>
	<path id="Layer" class="s6" d="m343 992.3h-30.2l-61.1-45.3"/>
	<path id="Layer" class="s6" d="m931.8 1457.3h62.8v61.3 92h-85.8v119.9"/>
	<path id="Layer" class="s6" d="m673.2 1457.3h128.2l69.8 60.6 123.4 0.7"/>
	<path id="Layer" class="s6" d="m618.7 1729.8v-50.4"/>
	<path id="Layer" class="s6" d="m607.9 1730.5v-34.8"/>
	<path id="Layer" class="s6" d="m843.5 1731.2v-44.4l22.7-12.3 26.2-14.2h105"/>
	<path id="Layer" class="s6" d="m996 1686.8l-108.5 0.5-16.5-15.4"/>
	<path id="Layer" class="s6" d="m265 450.6h111.6v114.3l84.2 43.5"/>
	<path id="Layer" class="s6" d="m526.8 646.2h-101.8l-1.9-57.3"/>
	<path id="Layer" class="s6" d="m316.6 170.6h60l-0.8 76.1h59.1"/>
	<path id="Layer" class="s6" d="m1415.4 333.5v-86.8l-106.5-60.5v-182.3"/>
	<path id="Layer" class="s6" d="m1436.7 400.5l-159.7-113.7v-282.3"/>
	<path id="Layer" class="s6" d="m1155.7 454h-276v-53.5"/>
	<path id="Layer" class="s6" d="m1313.2 624h-283.8v-40.4h-163.9v-60.2"/>
	<path id="Layer" class="s6" d="m285.6 312.2h143.6"/>
	<path id="Layer" class="s6" d="m649.6 283h97.6v64.7h-97.6z"/>
	<path id="Layer" class="s6" d="m758.5 283h26.8v64.7h-26.8z"/>
	<path id="Layer" class="s6" d="m544.6 438.7l18.6-10.3h93.6v42.1h-94.6l-17.7-14.2 0.1-17.6z"/>
	<path id="Layer" class="s6" d="m588.6 1462.2h19.3v62.6h-19.3z"/>
	<path id="Layer" class="s0" d="m254.6 509.2h122l185.3-94.4h212.8"/>
	<path id="Layer" class="s1" d="m1370.5 388.8l-103.8-76.6v-308.4"/>
	<path id="Layer" class="s0" d="m473.2 1170.3c-2.8 0-5.1-2.3-5.1-5.1 0-2.8 2.3-5.1 5.1-5.1 2.9 0 5.1 2.3 5.1 5.1 0 2.8-2.2 5.1-5.1 5.1z"/>
	<path id="Layer" class="s0" d="m470.4 952.1c-2.8 0-5.1-2.3-5.1-5.1 0-2.8 2.3-5.1 5.1-5.1 2.8 0 5.1 2.3 5.1 5.1 0 2.8-2.3 5.1-5.1 5.1z"/>
	<path id="Layer" class="s0" d="m531 1017.9c-2.8 0-5.1-2.3-5.1-5.1 0-2.8 2.3-5.1 5.1-5.1 2.8 0 5.1 2.3 5.1 5.1 0 2.8-2.3 5.1-5.1 5.1z"/>
	<path id="Layer" class="s0" d="m279.4 1050.2c-2.8 0-5.1-2.3-5.1-5.1 0-2.8 2.3-5.1 5.1-5.1 2.8 0 5.1 2.3 5.1 5.1 0 2.8-2.3 5.1-5.1 5.1z"/>
	<path id="Layer" class="s0" d="m563.4 925.6c-2.9 0-5.1-2.2-5.1-5 0-2.9 2.2-5.1 5.1-5.1 2.8 0 5.1 2.2 5.1 5.1 0 2.8-2.3 5-5.1 5z"/>
	<path id="Layer" class="s0" d="m791 997.4c-2.8 0-5.1-2.3-5.1-5.1 0-2.8 2.3-5.1 5.1-5.1 2.8 0 5.1 2.3 5.1 5.1 0 2.8-2.3 5.1-5.1 5.1z"/>
	<path id="Layer" class="s0" d="m243.2 871.6c-2.8 0-5.1-2.3-5.1-5.1 0-2.8 2.3-5.1 5.1-5.1 2.8 0 5.1 2.3 5.1 5.1 0 2.8-2.3 5.1-5.1 5.1z"/>
	<path id="Layer" class="s0" d="m465 617.6c-2.8 0-5.1-2.2-5.1-5.1 0-2.8 2.3-5.1 5.1-5.1 2.8 0 5.1 2.3 5.1 5.1 0 2.9-2.3 5.1-5.1 5.1z"/>
	<path id="Layer" class="s0" d="m585.3 360c-2.8 0-5.1-2.3-5.1-5.1 0-2.8 2.3-5.1 5.1-5.1 2.8 0 5.1 2.3 5.1 5.1 0 2.8-2.3 5.1-5.1 5.1z"/>
	<path id="Layer" class="s0" d="m778.9 419.9c-2.8 0-5.1-2.3-5.1-5.1 0-2.8 2.3-5.1 5.1-5.1 2.8 0 5.1 2.3 5.1 5.1 0 2.8-2.3 5.1-5.1 5.1z"/>
	<path id="Layer" class="s0" d="m433.3 273.1c-2.8 0-5.1-2.3-5.1-5.1 0-2.8 2.3-5.1 5.1-5.1 2.9 0 5.1 2.3 5.1 5.1 0 2.8-2.2 5.1-5.1 5.1z"/>
	<path id="Layer" class="s0" d="m433.3 317.3c-2.8 0-5.1-2.3-5.1-5.1 0-2.8 2.3-5.1 5.1-5.1 2.9 0 5.1 2.3 5.1 5.1 0 2.8-2.2 5.1-5.1 5.1z"/>
	<path id="Layer" class="s0" d="m468.1 291.4c-2.8 0-5.1-2.3-5.1-5.1 0-2.8 2.3-5.1 5.1-5.1 2.8 0 5.1 2.3 5.1 5.1 0 2.8-2.3 5.1-5.1 5.1z"/>
	<path id="Layer" class="s0" d="m439.1 251.7c-2.8 0-5.1-2.2-5.1-5 0-2.9 2.3-5.1 5.1-5.1 2.8 0 5.1 2.2 5.1 5.1 0 2.8-2.3 5-5.1 5z"/>
	<path id="Layer" class="s0" d="m1042.3 142.6c-2.8 0-5.1-2.3-5.1-5.1 0-2.8 2.3-5.1 5.1-5.1 2.8 0 5.1 2.3 5.1 5.1 0 2.8-2.3 5.1-5.1 5.1z"/>
	<path id="Layer" class="s0" d="m1249.3 273.1c-2.9 0-5.1-2.3-5.1-5.1 0-2.8 2.2-5.1 5.1-5.1 2.8 0 5.1 2.3 5.1 5.1 0 2.8-2.3 5.1-5.1 5.1z"/>
	<path id="Layer" class="s0" d="m1429.9 175.7c-2.8 0-5.1-2.3-5.1-5.1 0-2.8 2.3-5.1 5.1-5.1 2.9 0 5.1 2.3 5.1 5.1 0 2.8-2.2 5.1-5.1 5.1z"/>
	<path id="Layer" class="s0" d="m1113 304.6c-2.8 0-5.1-2.2-5.1-5 0-2.9 2.3-5.1 5.1-5.1 2.8 0 5.1 2.2 5.1 5.1 0 2.8-2.3 5-5.1 5z"/>
	<path id="Layer" class="s0" d="m1262.5 370.2c-2.8 0-5.1-2.3-5.1-5.1 0-2.8 2.3-5.1 5.1-5.1 2.8 0 5.1 2.3 5.1 5.1 0 2.8-2.3 5.1-5.1 5.1z"/>
	<path id="Layer" class="s0" d="m1059.1 24.3c-2.8 0-5.1-2.3-5.1-5.1 0-2.8 2.3-5.1 5.1-5.1 2.8 0 5.1 2.3 5.1 5.1 0 2.8-2.3 5.1-5.1 5.1z"/>
	<path id="Layer" class="s0" d="m1211 83.6c-2.8 0-5.1-2.2-5.1-5.1 0-2.8 2.3-5 5.1-5 2.9 0 5.1 2.2 5.1 5 0 2.9-2.2 5.1-5.1 5.1z"/>
	<path id="Layer" class="s0" d="m1392.9 76.5c-2.8 0-5.1-2.2-5.1-5 0-2.9 2.3-5.1 5.1-5.1 2.8 0 5.1 2.2 5.1 5.1 0 2.8-2.3 5-5.1 5z"/>
	<path id="Layer" class="s0" d="m1406.1 43.5c-2.8 0-5.1-2.3-5.1-5.1 0-2.8 2.3-5.1 5.1-5.1 2.8 0 5.1 2.3 5.1 5.1 0 2.8-2.3 5.1-5.1 5.1z"/>
	<path id="Layer" class="s0" d="m1376.5 52.8c-2.8 0-5.1-2.2-5.1-5 0-2.9 2.3-5.1 5.1-5.1 2.8 0 5.1 2.2 5.1 5.1 0 2.8-2.3 5-5.1 5z"/>
	<path id="Layer" class="s0" d="m1443.9 29.7c-2.8 0-5.1-2.2-5.1-5 0-2.9 2.3-5.1 5.1-5.1 2.8 0 5.1 2.2 5.1 5.1 0 2.8-2.3 5-5.1 5z"/>
	<path id="Layer" class="s0" d="m1202.1 227.1c-2.9 0-5.1-2.2-5.1-5.1 0-2.8 2.2-5 5.1-5 2.8 0 5 2.2 5 5 0 2.9-2.2 5.1-5 5.1z"/>
	<path id="Layer" class="s0" d="m1575.7 385.3c-2.8 0-5.1-2.3-5.1-5.1 0-2.8 2.3-5.1 5.1-5.1 2.8 0 5.1 2.3 5.1 5.1 0 2.8-2.3 5.1-5.1 5.1z"/>
	<path id="Layer" class="s0" d="m1348.8 91.7c-2.9 0-5.1-2.3-5.1-5.1 0-2.8 2.2-5.1 5.1-5.1 2.8 0 5 2.3 5 5.1 0 2.8-2.2 5.1-5 5.1z"/>
	<path id="Layer" class="s0" d="m673.9 71.9c-2.8 0-5.1-2.3-5.1-5.1 0-2.8 2.3-5.1 5.1-5.1 2.8 0 5.1 2.3 5.1 5.1 0 2.8-2.3 5.1-5.1 5.1z"/>
	<path id="Layer" class="s0" d="m650.9 157.6c-2.8 0-5.1-2.2-5.1-5.1 0-2.8 2.3-5 5.1-5 2.8 0 5.1 2.2 5.1 5 0 2.9-2.3 5.1-5.1 5.1z"/>
	<path id="Layer" class="s0" d="m987.2 405.6c-2.8 0-5.1-2.2-5.1-5.1 0-2.8 2.3-5 5.1-5 2.8 0 5.1 2.2 5.1 5 0 2.9-2.3 5.1-5.1 5.1z"/>
	<path id="Layer" class="s0" d="m1317.4 629.1c-2.8 0-5.1-2.3-5.1-5.1 0-2.8 2.3-5.1 5.1-5.1 2.8 0 5.1 2.3 5.1 5.1 0 2.8-2.3 5.1-5.1 5.1z"/>
	<path id="Layer" class="s0" d="m1159.9 459.1c-2.9 0-5.1-2.3-5.1-5.1 0-2.8 2.2-5.1 5.1-5.1 2.8 0 5 2.3 5 5.1 0 2.8-2.2 5.1-5 5.1z"/>
	<path id="Layer" class="s0" d="m1207.1 419.9c-2.8 0-5-2.3-5-5.1 0-2.8 2.2-5.1 5-5.1 2.9 0 5.1 2.3 5.1 5.1 0 2.8-2.2 5.1-5.1 5.1z"/>
	<path id="Layer" class="s0" d="m1415.4 341.5c-2.9 0-5.1-2.3-5.1-5.1 0-2.8 2.2-5.1 5.1-5.1 2.8 0 5 2.3 5 5.1 0 2.8-2.2 5.1-5 5.1z"/>
	<path id="Layer" class="s0" d="m1440.8 409.8c-2.8 0-5.1-2.3-5.1-5.1 0-2.8 2.3-5.1 5.1-5.1 2.9 0 5.1 2.3 5.1 5.1 0 2.8-2.2 5.1-5.1 5.1z"/>
	<path id="Layer" class="s0" d="m795.2 262c-2.8 0-5.1-2.2-5.1-5 0-2.9 2.3-5.1 5.1-5.1 2.8 0 5.1 2.2 5.1 5.1 0 2.8-2.3 5-5.1 5z"/>
	<path id="Layer" class="s0" d="m673.9 698.9c-2.8 0-5.1-2.2-5.1-5.1 0-2.8 2.3-5 5.1-5 2.8 0 5.1 2.2 5.1 5 0 2.9-2.3 5.1-5.1 5.1z"/>
	<path id="Layer" class="s0" d="m158.9 759.5c-2.8 0-5.1-2.2-5.1-5 0-2.9 2.3-5.1 5.1-5.1 2.8 0 5.1 2.2 5.1 5.1 0 2.8-2.3 5-5.1 5z"/>
	<path id="Layer" class="s0" d="m531 651.2c-2.8 0-5.1-2.2-5.1-5 0-2.9 2.3-5.1 5.1-5.1 2.8 0 5.1 2.2 5.1 5.1 0 2.8-2.3 5-5.1 5z"/>
	<path id="Layer" class="s0" d="m195.7 771.2c-2.8 0-5.1-2.3-5.1-5.1 0-2.8 2.3-5.1 5.1-5.1 2.8 0 5.1 2.3 5.1 5.1 0 2.8-2.3 5.1-5.1 5.1z"/>
	<path id="Layer" class="s0" d="m367.1 725.3c-2.8 0-5.1-2.2-5.1-5.1 0-2.8 2.3-5 5.1-5 2.8 0 5.1 2.2 5.1 5 0 2.9-2.3 5.1-5.1 5.1z"/>
	<path id="Layer" class="s0" d="m325.5 952.1c-2.9 0-5.1-2.3-5.1-5.1 0-2.8 2.2-5.1 5.1-5.1 2.8 0 5.1 2.3 5.1 5.1 0 2.8-2.3 5.1-5.1 5.1z"/>
	<path id="Layer" class="s0" d="m347.2 997.4c-2.8 0-5.1-2.3-5.1-5.1 0-2.8 2.3-5.1 5.1-5.1 2.8 0 5.1 2.3 5.1 5.1 0 2.8-2.3 5.1-5.1 5.1z"/>
	<path id="Layer" class="s0" d="m175.7 1058c-2.9 0-5.1-2.3-5.1-5.1 0-2.8 2.2-5.1 5.1-5.1 2.8 0 5.1 2.3 5.1 5.1 0 2.8-2.3 5.1-5.1 5.1z"/>
	<path id="Layer" class="s0" d="m396.1 1135.4c-2.9 0-5.1-2.3-5.1-5.1 0-2.8 2.2-5.1 5.1-5.1 2.8 0 5.1 2.3 5.1 5.1 0 2.8-2.3 5.1-5.1 5.1z"/>
	<path id="Layer" class="s0" d="m299 1348.8c-2.8 0-5.1-2.2-5.1-5 0-2.9 2.3-5.1 5.1-5.1 2.9 0 5.1 2.2 5.1 5.1 0 2.8-2.2 5-5.1 5z"/>
	<path id="Layer" class="s0" d="m399.7 1236.1c-2.8 0-5.1-2.2-5.1-5.1 0-2.8 2.3-5 5.1-5 2.9 0 5.1 2.2 5.1 5 0 2.9-2.2 5.1-5.1 5.1z"/>
	<path id="Layer" class="s0" d="m321.8 1379c-2.8 0-5.1-2.2-5.1-5 0-2.9 2.3-5.1 5.1-5.1 2.8 0 5.1 2.2 5.1 5.1 0 2.8-2.3 5-5.1 5z"/>
	<path id="Layer" class="s0" d="m473.4 1276.8c-2.8 0-5.1-2.3-5.1-5.1 0-2.8 2.3-5.1 5.1-5.1 2.8 0 5.1 2.3 5.1 5.1 0 2.8-2.3 5.1-5.1 5.1z"/>
	<path id="Layer" class="s0" d="m553.9 1353c-2.8 0-5.1-2.3-5.1-5.1 0-2.8 2.3-5.1 5.1-5.1 2.8 0 5.1 2.3 5.1 5.1 0 2.8-2.3 5.1-5.1 5.1z"/>
	<path id="Layer" class="s0" d="m532.9 1237.8c-2.8 0-5.1-2.2-5.1-5 0-2.9 2.3-5.1 5.1-5.1 2.8 0 5.1 2.2 5.1 5.1 0 2.8-2.3 5-5.1 5z"/>
	<path id="Layer" class="s0" d="m526.4 1393.9c-2.8 0-5.1-2.2-5.1-5 0-2.9 2.3-5.1 5.1-5.1 2.8 0 5.1 2.2 5.1 5.1 0 2.8-2.3 5-5.1 5z"/>
	<path id="Layer" class="s0" d="m541.3 1451.9c-2.9 0-5.1-2.3-5.1-5.1 0-2.8 2.2-5.1 5.1-5.1 2.8 0 5.1 2.3 5.1 5.1 0 2.8-2.3 5.1-5.1 5.1z"/>
	<path id="Layer" class="s0" d="m395.6 1548.4c-2.9 0-5.1-2.3-5.1-5.1 0-2.8 2.2-5.1 5.1-5.1 2.8 0 5.1 2.3 5.1 5.1 0 2.8-2.3 5.1-5.1 5.1z"/>
	<path id="Layer" class="s0" d="m453.1 1513.7c-2.8 0-5.1-2.3-5.1-5.1 0-2.8 2.3-5.1 5.1-5.1 2.8 0 5.1 2.3 5.1 5.1 0 2.8-2.3 5.1-5.1 5.1z"/>
	<path id="Layer" class="s0" d="m553.9 1617.9c-2.8 0-5.1-2.3-5.1-5.1 0-2.8 2.3-5.1 5.1-5.1 2.8 0 5.1 2.3 5.1 5.1 0 2.8-2.3 5.1-5.1 5.1z"/>
	<path id="Layer" class="s0" d="m628.5 1650.5c-2.8 0-5.1-2.2-5.1-5.1 0-2.8 2.3-5 5.1-5 2.8 0 5.1 2.2 5.1 5 0 2.9-2.3 5.1-5.1 5.1z"/>
	<path id="Layer" class="s0" d="m700.1 1582.6c-2.8 0-5.1-2.3-5.1-5.1 0-2.8 2.3-5.1 5.1-5.1 2.8 0 5.1 2.3 5.1 5.1 0 2.8-2.3 5.1-5.1 5.1z"/>
	<path id="Layer" class="s0" d="m931.8 1462.4c-2.8 0-5.1-2.3-5.1-5.1 0-2.9 2.3-5.1 5.1-5.1 2.9 0 5.1 2.2 5.1 5.1 0 2.8-2.2 5.1-5.1 5.1z"/>
	<path id="Layer" class="s0" d="m669 1462.4c-2.8 0-5.1-2.3-5.1-5.1 0-2.9 2.3-5.1 5.1-5.1 2.8 0 5.1 2.2 5.1 5.1 0 2.8-2.3 5.1-5.1 5.1z"/>
	<path id="Layer" class="s0" d="m994.6 1353c-2.8 0-5.1-2.3-5.1-5.1 0-2.8 2.3-5.1 5.1-5.1 2.8 0 5.1 2.3 5.1 5.1 0 2.8-2.3 5.1-5.1 5.1z"/>
	<path id="Layer" class="s0" d="m707.3 1644.7c-2.9 0-5.1-2.2-5.1-5.1 0-2.8 2.2-5 5.1-5 2.8 0 5.1 2.2 5.1 5 0 2.9-2.3 5.1-5.1 5.1z"/>
	<path id="Layer" class="s0" d="m720.8 1633.8c-2.9 0-5.1-2.3-5.1-5.1 0-2.8 2.2-5.1 5.1-5.1 2.8 0 5.1 2.3 5.1 5.1 0 2.8-2.3 5.1-5.1 5.1z"/>
	<path id="Layer" class="s0" d="m651.9 1615.7c-2.9 0-5.1-2.2-5.1-5.1 0-2.8 2.2-5 5.1-5 2.8 0 5.1 2.2 5.1 5 0 2.9-2.3 5.1-5.1 5.1z"/>
	<path id="Layer" class="s0" d="m1000.2 1691.9c-2.8 0-5.1-2.3-5.1-5.1 0-2.8 2.3-5.1 5.1-5.1 2.8 0 5.1 2.3 5.1 5.1 0 2.8-2.3 5.1-5.1 5.1z"/>
	<path id="Layer" class="s0" d="m1001.6 1665.4c-2.8 0-5.1-2.3-5.1-5.1 0-2.8 2.3-5.1 5.1-5.1 2.8 0 5.1 2.3 5.1 5.1 0 2.8-2.3 5.1-5.1 5.1z"/>
	<path id="Layer" class="s0" d="m607.9 1696.7c-2.8 0-5.1-2.3-5.1-5.1 0-2.8 2.3-5.1 5.1-5.1 2.9 0 5.1 2.3 5.1 5.1 0 2.8-2.2 5.1-5.1 5.1z"/>
	<path id="Layer" class="s0" d="m618.7 1680.4c-2.8 0-5.1-2.3-5.1-5.1 0-2.8 2.3-5.1 5.1-5.1 2.8 0 5.1 2.3 5.1 5.1 0 2.8-2.3 5.1-5.1 5.1z"/>
	<path id="Layer" class="s0" d="m526.4 1674.3c-2.8 0-5.1-2.3-5.1-5.1 0-2.8 2.3-5.1 5.1-5.1 2.8 0 5.1 2.3 5.1 5.1 0 2.8-2.3 5.1-5.1 5.1z"/>
</svg>