<svg version="1.2" xmlns="http://www.w3.org/2000/svg" viewBox="0 0 1730 1734" width="1730" height="1734">
	<title>filec1-svg</title>
	<style>
		.s0 { fill: none;stroke: #53aedd } 
		.s1 { fill: none;stroke: #53aedd;stroke-width: 2 } 
		.s2 { fill: none;stroke: #53aedd;stroke-width: .8 } 
		.s3 { fill: none;stroke: #53aedd;stroke-width: 3 } 
		.s4 { fill: #53aedd;stroke: #53aedd } 
		.s5 { fill: none;stroke: #53aedd;stroke-width: 4 } 
		.s6 { fill: none;stroke: #53aedd;stroke-width: .5 } 
	</style>
	<path id="Layer" class="s0" d="m776 1578.5h111.2l43.5 37.3h101.8v6.2 112"/>
	<path id="Layer" class="s0" d="m930.7 1615.8l-48.9 18.1h-156.7"/>
	<path id="Layer" class="s1" d="m1594.3 893.3l-203.8 152.8h-66.2-288.4"/>
	<path id="Layer" class="s1" d="m1330.9 1046.1l-53.2 71.1h-241.8"/>
	<path id="Layer" class="s1" d="m1453.7 1189.2l-413.5-0.9-132.8 90.9-489.9-0.4"/>
	<path id="Layer" class="s1" d="m1443.9 1290.3h-305.7l-131.1 108.9h-306.9l-116.2-120.3"/>
	<path id="Layer" class="s0" d="m1489.3 639.2v138.6 8.6h-126.7l-56.4 59.7-127.4-0.9"/>
	<path id="Layer" class="s0" d="m1178.8 732.8h128l55.8 53.6"/>
	<path id="Layer" class="s2" d="m1199.2 760h97.7l22 18.8v19.2l-19.8 19.8h-99.9v-45.8z"/>
	<path id="Layer" class="s3" d="m1088.3 1331.7l348.5-6"/>
	<path id="Layer" class="s4" d="m1027.8 1026.9c10.1 0 18.2 7.7 18.2 17.2 0 9.5-8.1 17.2-18.2 17.2-10 0-18.1-7.7-18.1-17.2 0-9.5 8.1-17.2 18.1-17.2z"/>
	<path id="Layer" class="s4" d="m1027.8 1100c10.1 0 18.2 7.7 18.2 17.2 0 9.4-8.1 17.1-18.2 17.1-10 0-18.1-7.7-18.1-17.1 0-9.5 8.1-17.2 18.1-17.2z"/>
	<path id="Layer" class="s4" d="m1178.8 835c5.6 0 10.2 4.6 10.2 10.2 0 5.6-4.6 10.2-10.2 10.2-5.6 0-10.2-4.6-10.2-10.2 0-5.6 4.6-10.2 10.2-10.2z"/>
	<path id="Layer" class="s2" d="m1209.5 771.6h20v36.3h-20z"/>
	<path id="Layer" class="s2" d="m1241 771.6h49.7v36.3h-49.7z"/>
	<path id="Layer" class="s4" d="m1178.8 722.7c5.6 0 10.2 4.5 10.2 10.1 0 5.7-4.6 10.2-10.2 10.2-5.6 0-10.2-4.5-10.2-10.2 0-5.6 4.6-10.1 10.2-10.1z"/>
	<path id="Layer" class="s4" d="m1097.7 1314.6c9.5 0 17.2 7.7 17.2 17.2 0 9.4-7.7 17.1-17.2 17.1-9.5 0-17.2-7.7-17.2-17.1 0-9.5 7.7-17.2 17.2-17.2z"/>
	<path id="Layer" class="s0" d="m716.7 1625.7c4.5 0 8.2 3.7 8.2 8.2 0 4.5-3.7 8.2-8.2 8.2-4.5 0-8.2-3.7-8.2-8.2 0-4.5 3.7-8.2 8.2-8.2z"/>
	<path id="Layer" class="s4" d="m163.5 1418.2c4.5 0 8.2 3.6 8.2 8.1 0 4.6-3.7 8.2-8.2 8.2-4.5 0-8.2-3.6-8.2-8.2 0-4.5 3.7-8.1 8.2-8.1z"/>
	<path id="Layer" class="s0" d="m769.6 1570.4c4.5 0 8.2 3.6 8.2 8.2 0 4.5-3.7 8.1-8.2 8.1-4.5 0-8.2-3.6-8.2-8.1 0-4.6 3.7-8.2 8.2-8.2z"/>
	<path id="Layer" class="s4" d="m218.4 1180.1c4.5 0 8.2 3.7 8.2 8.2 0 4.5-3.7 8.2-8.2 8.2-4.5 0-8.2-3.7-8.2-8.2 0-4.5 3.7-8.2 8.2-8.2z"/>
	<path id="Layer" class="s5" d="m620.5 867.5c34.5 0 62.4 27.8 62.4 62.3 0 34.4-27.9 62.2-62.4 62.2-34.4 0-62.3-27.8-62.3-62.3 0-34.4 27.9-62.2 62.3-62.2z"/>
	<path id="Layer" class="s1" d="m620.5 817.2c62.4 0 112.8 50.3 112.8 112.6 0 62.3-50.4 112.6-112.8 112.6-62.3 0-112.7-50.3-112.7-112.6 0-62.3 50.4-112.6 112.7-112.6z"/>
	<path id="Layer" class="s1" d="m324.1 1555.4c17.4 0 31.4 14 31.4 31.3 0 17.3-14 31.3-31.4 31.3-17.3 0-31.3-14-31.3-31.3 0-17.3 14-31.3 31.3-31.3z"/>
	<path id="Layer" class="s2" d="m324.1 1539.8c26 0 47 21 47 46.9 0 25.9-21 46.9-47 46.9-25.9 0-46.9-21-46.9-46.9 0-25.9 21-46.9 46.9-46.9z"/>
	<path id="Layer" class="s0" d="m828.3 677.7c16.5 0 29.8 13.3 29.8 29.7 0 16.4-13.3 29.7-29.8 29.7-16.4 0-29.7-13.3-29.7-29.7 0-16.4 13.3-29.7 29.7-29.7z"/>
	<path id="Layer" class="s0" d="m324.1 1566.7c11.1 0 20.1 8.9 20.1 20 0 11.1-9 20-20.1 20-11 0-20-8.9-20-20 0-11.1 9-20 20-20z"/>
	<path id="Layer" class="s3" d="m94.4 1388.6h198.4v73.7h303.7v269.2"/>
	<path id="Layer" class="s1" d="m163.5 1426.4h84.2v72.7l316-1.9v233.6"/>
	<path id="Layer" class="s3" d="m947.8 1555.4h167.1l200.2 134.8"/>
	<path id="Layer" class="s3" d="m1604 807.9h-201.9l-67.4 77.7-288.7-5.5-168.3-128.8"/>
	<path id="Layer" class="s0" d="m828.3 639.9c37.3 0 67.5 30.2 67.5 67.4 0 37.3-30.2 67.5-67.5 67.5-37.3 0-67.5-30.2-67.5-67.5 0-37.2 30.2-67.4 67.5-67.4z"/>
	<path id="Layer" class="s6" d="m1086.9 1611.7l49.1 33.1 32.5 22v64"/>
	<path id="Layer" class="s6" d="m1079.3 1646.4h59.1"/>
	<path id="Layer" class="s0" d="m1225.2 1629.7l0.9-169.6h99.3l34.8-38.2"/>
	<path id="Layer" class="s0" d="m1363.7 1645.6h-53.6l0.5-96.9"/>
	<path id="Layer" class="s0" d="m911.1 1730.8v-59.6h73.8v-37.3"/>
	<path id="Layer" class="s0" d="m998.4 1644.8v45.4h-74.5v40.6"/>
	<path id="Layer" class="s6" d="m711 1348.9h160.7l63.9 36.5h195.8v140.4h94.7"/>
	<path id="Layer" class="s2" d="m1123.2 885.6v107.7h-208.6"/>
	<path id="Layer" class="s2" d="m1318.9 44.5l-176.3 146.5v210.5h-420"/>
	<path id="Layer" class="s1" d="m1199.2 614.7v-271.2h227.5"/>
	<path id="Layer" class="s0" d="m1439.4 401.5h-138.8v293.3h-264.7"/>
	<path id="Layer" class="s0" d="m584 524.4h435l159.8 170.4"/>
	<path id="Layer" class="s3" d="m1199.2 287.3v-77.4l166.7-122.8"/>
	<path id="Layer" class="s0" d="m1116.1 351.7l-39.7-30.9v-53.3h-66.2v-262.5"/>
	<path id="Layer" class="s0" d="m965.7 3.6v168h-518.4"/>
	<path id="Layer" class="s0" d="m863.6 171.6l-137.7 129h-129.1"/>
	<path id="Layer" class="s0" d="m494.6 79.5h93.7v92.1"/>
	<path id="Layer" class="s0" d="m1342.7 717.1l57.2-22.3v-146.6h51.1"/>
	<path id="Layer" class="s0" d="m1546.7 673.4v77.9"/>
	<path id="Layer" class="s0" d="m1572.3 694.3v72.8h-58.2"/>
	<path id="Layer" class="s0" d="m218.4 1188.3l125.7 126.3h205.9l112.1 111.8v305.8"/>
	<path id="Layer" class="s1" d="m923.9 3v93.3h-217.4"/>
	<path id="Layer" class="s1" d="m1252.5 3l-124.8 93.3h-68.8"/>
	<path id="Layer" class="s2" d="m1384.3 1217.7h52.5v38.9h-52.5z"/>
	<path id="Layer" class="s2" d="m1426.7 880.8h71v30.8h-71z"/>
	<path id="Layer" class="s2" d="m1155.9 948h63.6v19.7h-63.6z"/>
	<path id="Layer" class="s2" d="m1466.6 730.7h-39.9v-104.4h13.9l26 20.9z"/>
	<path id="Layer" class="s2" d="m1527.8 749.2h-22.4v-77.9h22.2z"/>
	<path id="Layer" class="s2" d="m1466.6 753.3h-40v-12.9h40z"/>
	<path id="Layer" class="s2" d="m1058.9 153.5h72.5l71.7-58.4 25.4 24.6"/>
	<path id="Layer" class="s2" d="m1392 185.2h-45.4v84.9h-26.1l-11.4 17.2h-67.4"/>
	<path id="Layer" class="s2" d="m1276.5 269l44 1.1"/>
	<path id="Layer" class="s2" d="m273.7 171.6h-53.5v-99.1-66.7"/>
	<path id="Layer" class="s2" d="m352.7 87.6h-57.7l-21.3-14.7-53.5-0.4"/>
	<path id="Layer" class="s2" d="m273.7 72.9h34.1"/>
	<path id="Layer" class="s6" d="m295 39.4h-48l-26.8-18.4"/>
	<path id="Layer" class="s2" d="m333.3 48.8h21.3v-23.8h42.1"/>
	<path id="Layer" class="s6" d="m324.1 5.8v19.9h-58.2"/>
	<path id="Layer" class="s6" d="m620.5 7.4v227.3l-98.9 34.3-61.1 0.6"/>
	<path id="Layer" class="s6" d="m620.5 187.2h-36.5v35.8h-76.2"/>
	<path id="Layer" class="s6" d="m798.6 96.3l-37.8 42.2h-91.6"/>
	<path id="Layer" class="s6" d="m815.2 5.8v38.7h-54.4l-38.2-23.5h-71.9"/>
	<path id="Layer" class="s6" d="m190.5 1571.4v51.4l78.5 51.5v56.8"/>
	<path id="Layer" class="s6" d="m389.1 1586.7h52v77.7h56.3v15.6 50.8"/>
	<path id="Layer" class="s6" d="m355.5 1680h141.9"/>
	<path id="Layer" class="s6" d="m371.1 1530.3h101.8v99.1l63.8 50.6"/>
	<path id="Layer" class="s6" d="m505.5 1530.3v59.5l31.2 25v116"/>
	<path id="Layer" class="s6" d="m536.7 1517v97.8"/>
	<path id="Layer" class="s6" d="m182.8 1654.2v37.8h43.6v38.8"/>
	<path id="Layer" class="s2" d="m345.3 1415.7v-66.8h200.4l38.3 41.8v25z"/>
	<path id="Layer" class="s2" d="m355.5 1359.6h37.6v46.6h-37.6z"/>
	<path id="Layer" class="s2" d="m475.5 1406.2v-47.3h61.2l20.4 23.4v23.9z"/>
	<path id="Layer" class="s0" d="m887.7 7.4v358.7h-440.4"/>
	<path id="Layer" class="s0" d="m1107.6 4.9v62.9h-71.7"/>
	<path id="Layer" class="s6" d="m947.1 171.6v51.4l-32.5 30.8"/>
	<path id="Layer" class="s6" d="m501.7 415.8h124.9l48.2 39.2"/>
	<path id="Layer" class="s1" d="m163.9 28.3v306.2"/>
	<path id="Layer" class="s2" d="m129.9 51.3v325.8"/>
	<path id="Layer" class="s6" d="m1156.3 1347.9h159.2 54.1v98.7h47.3"/>
	<path id="Layer" class="s6" d="m1331.2 1347.9l-44.7 41.8h-102.7"/>
	<path id="Layer" class="s6" d="m1010.1 1577.5l56 0.1 21.2 33h-29"/>
	<path id="Layer" class="s6" d="m1156.3 1617l69.3 52.8v31.4l27.3 28.6"/>
	<path id="Layer" class="s6" d="m1183.8 1673.4l41.8 27.8"/>
	<path id="Layer" class="s6" d="m1310.4 1610.6h-57.5v-98.4"/>
	<path id="Layer" class="s6" d="m1255.6 1474l37.5 20.3 53.9-0.9v31.4l44.1 27.7"/>
	<path id="Layer" class="s6" d="m1323.3 1493.8l-12.9 19.5h-47.5"/>
	<path id="Layer" class="s6" d="m1416.9 1432h-32.7v-21.7-32.2"/>
	<path id="Layer" class="s6" d="m1407 1347.9v49.4l-22.8 23.6"/>
	<path id="Layer" class="s6" d="m1168.9 1442.4l19.5-21.5h64.5v36.4"/>
	<path id="Layer" class="s6" d="m1450.1 1271.7h-134.9l-55.2-38.9h-82.7"/>
	<path id="Layer" class="s6" d="m1236.8 1271.7h78.4"/>
	<path id="Layer" class="s6" d="m1311.3 1231h26.2v-28.7h112.6"/>
	<path id="Layer" class="s6" d="m1457.1 1131.5h-84.4l-41.5 33.7h-95.8"/>
	<path id="Layer" class="s6" d="m1530.3 1075.1h-58v-30h-39.7"/>
	<path id="Layer" class="s6" d="m1314.1 1126.1l44.3-51h113.9"/>
	<path id="Layer" class="s6" d="m1454.3 1037.3h53.9v-29.8l45.5-54.2h57.9"/>
	<path id="Layer" class="s6" d="m1530.3 1049.3v-30l31.1-36.2h44.9"/>
	<path id="Layer" class="s6" d="m1591.4 849.9h-163.6l-59.7 70.7h-43-177.4"/>
	<path id="Layer" class="s6" d="m1321.8 920.6v35.4 24.5l-59.6 32.3h-83"/>
	<path id="Layer" class="s6" d="m1239.8 947h80.6 1.8"/>
	<path id="Layer" class="s6" d="m1570.6 866.9l-103.6-0.4"/>
	<path id="Layer" class="s6" d="m1582.9 874.3l-98.9 72.7h-26.9-72.4"/>
	<path id="Layer" class="s6" d="m1454.3 947l-61.1 45.3h-30.2"/>
	<path id="Layer" class="s6" d="m797.2 1730.5v-119.9h-85.8v-92-61.3h62.8"/>
	<path id="Layer" class="s6" d="m711.4 1518.6l123.4-0.7 69.8-60.6h128.2"/>
	<path id="Layer" class="s6" d="m1087.3 1729.8v-50.4"/>
	<path id="Layer" class="s6" d="m1098.1 1730.5v-34.8"/>
	<path id="Layer" class="s6" d="m708.6 1660.3h105l26.2 14.2 22.7 12.3v44.4"/>
	<path id="Layer" class="s6" d="m835 1671.9l-16.5 15.4-108.5-0.5"/>
	<path id="Layer" class="s6" d="m1245.2 608.4l84.2-43.5v-114.3h111.6"/>
	<path id="Layer" class="s6" d="m1282.9 588.9l-1.9 57.3h-101.8"/>
	<path id="Layer" class="s6" d="m1271.1 246.7h59.1l-0.8-76.1h60"/>
	<path id="Layer" class="s6" d="m397.1 3.9v182.3l-106.5 60.5v86.8"/>
	<path id="Layer" class="s6" d="m429 4.5v282.3l-159.7 113.7"/>
	<path id="Layer" class="s6" d="m826.3 400.5v53.5h-276"/>
	<path id="Layer" class="s6" d="m840.5 523.4v60.2h-163.9v40.4h-283.8"/>
	<path id="Layer" class="s6" d="m1420.4 312.2h-143.6"/>
	<path id="Layer" class="s6" d="m958.8 283h97.6v64.7h-97.6z"/>
	<path id="Layer" class="s6" d="m920.7 283h26.8v64.7h-26.8z"/>
	<path id="Layer" class="s6" d="m1161.5 456.3l-17.7 14.2h-94.6v-42.1h93.6l18.6 10.3z"/>
	<path id="Layer" class="s6" d="m1098.1 1462.2h19.3v62.6h-19.3z"/>
	<path id="Layer" class="s0" d="m931.3 414.8h212.8l185.3 94.4h122"/>
	<path id="Layer" class="s1" d="m439.3 3.8v308.4l-103.8 76.6"/>
	<path id="Layer" class="s0" d="m1232.8 1160.1c2.8 0 5.1 2.3 5.1 5.1 0 2.8-2.3 5.1-5.1 5.1-2.8 0-5.1-2.3-5.1-5.1 0-2.8 2.3-5.1 5.1-5.1z"/>
	<path id="Layer" class="s0" d="m1235.6 941.9c2.8 0 5.1 2.3 5.1 5.1 0 2.8-2.3 5.1-5.1 5.1-2.8 0-5.1-2.3-5.1-5.1 0-2.8 2.3-5.1 5.1-5.1z"/>
	<path id="Layer" class="s0" d="m1175 1007.7c2.8 0 5.1 2.3 5.1 5.1 0 2.8-2.3 5.1-5.1 5.1-2.8 0-5.1-2.3-5.1-5.1 0-2.8 2.3-5.1 5.1-5.1z"/>
	<path id="Layer" class="s0" d="m1426.6 1040c2.8 0 5.1 2.3 5.1 5.1 0 2.8-2.3 5.1-5.1 5.1-2.8 0-5.1-2.3-5.1-5.1 0-2.8 2.3-5.1 5.1-5.1z"/>
	<path id="Layer" class="s0" d="m1142.6 915.5c2.8 0 5.1 2.3 5.1 5 0 2.8-2.3 5.1-5.1 5.1-2.8 0-5.1-2.3-5.1-5.1 0-2.7 2.3-5 5.1-5z"/>
	<path id="Layer" class="s0" d="m915 987.2c2.8 0 5.1 2.3 5.1 5.1 0 2.8-2.3 5.1-5.1 5.1-2.8 0-5.1-2.3-5.1-5.1 0-2.8 2.3-5.1 5.1-5.1z"/>
	<path id="Layer" class="s0" d="m1462.8 861.4c2.8 0 5.1 2.3 5.1 5.1 0 2.8-2.3 5.1-5.1 5.1-2.8 0-5.1-2.3-5.1-5.1 0-2.8 2.3-5.1 5.1-5.1z"/>
	<path id="Layer" class="s0" d="m1241 607.4c2.8 0 5.1 2.3 5.1 5.1 0 2.8-2.3 5.1-5.1 5.1-2.8 0-5.1-2.3-5.1-5.1 0-2.8 2.3-5.1 5.1-5.1z"/>
	<path id="Layer" class="s0" d="m1120.7 349.8c2.8 0 5.1 2.3 5.1 5.1 0 2.8-2.3 5.1-5.1 5.1-2.8 0-5.1-2.3-5.1-5.1 0-2.8 2.3-5.1 5.1-5.1z"/>
	<path id="Layer" class="s0" d="m927.1 409.7c2.8 0 5.1 2.3 5.1 5.1 0 2.8-2.3 5.1-5.1 5.1-2.8 0-5.1-2.3-5.1-5.1 0-2.8 2.3-5.1 5.1-5.1z"/>
	<path id="Layer" class="s0" d="m1272.7 262.9c2.8 0 5.1 2.3 5.1 5.1 0 2.8-2.3 5.1-5.1 5.1-2.8 0-5.1-2.3-5.1-5.1 0-2.8 2.3-5.1 5.1-5.1z"/>
	<path id="Layer" class="s0" d="m1272.7 307.1c2.8 0 5.1 2.3 5.1 5.1 0 2.8-2.3 5.1-5.1 5.1-2.8 0-5.1-2.3-5.1-5.1 0-2.8 2.3-5.1 5.1-5.1z"/>
	<path id="Layer" class="s0" d="m1237.9 281.2c2.8 0 5.1 2.3 5.1 5.1 0 2.8-2.3 5.1-5.1 5.1-2.8 0-5.1-2.3-5.1-5.1 0-2.8 2.3-5.1 5.1-5.1z"/>
	<path id="Layer" class="s0" d="m1266.9 241.6c2.8 0 5.1 2.3 5.1 5 0 2.8-2.3 5.1-5.1 5.1-2.8 0-5.1-2.3-5.1-5.1 0-2.7 2.3-5 5.1-5z"/>
	<path id="Layer" class="s0" d="m663.7 132.4c2.8 0 5.1 2.3 5.1 5.1 0 2.8-2.3 5.1-5.1 5.1-2.8 0-5.1-2.3-5.1-5.1 0-2.8 2.3-5.1 5.1-5.1z"/>
	<path id="Layer" class="s0" d="m456.7 262.9c2.8 0 5.1 2.3 5.1 5.1 0 2.8-2.3 5.1-5.1 5.1-2.8 0-5.1-2.3-5.1-5.1 0-2.8 2.3-5.1 5.1-5.1z"/>
	<path id="Layer" class="s0" d="m276.1 165.5c2.8 0 5.1 2.3 5.1 5.1 0 2.8-2.3 5.1-5.1 5.1-2.8 0-5.1-2.3-5.1-5.1 0-2.8 2.3-5.1 5.1-5.1z"/>
	<path id="Layer" class="s0" d="m593 294.5c2.8 0 5.1 2.3 5.1 5.1 0 2.7-2.3 5-5.1 5-2.8 0-5.1-2.3-5.1-5 0-2.8 2.3-5.1 5.1-5.1z"/>
	<path id="Layer" class="s0" d="m443.5 360c2.8 0 5.1 2.3 5.1 5.1 0 2.8-2.3 5.1-5.1 5.1-2.8 0-5.1-2.3-5.1-5.1 0-2.8 2.3-5.1 5.1-5.1z"/>
	<path id="Layer" class="s0" d="m646.9 14.1c2.8 0 5.1 2.3 5.1 5.1 0 2.8-2.3 5.1-5.1 5.1-2.8 0-5.1-2.3-5.1-5.1 0-2.8 2.3-5.1 5.1-5.1z"/>
	<path id="Layer" class="s0" d="m495 73.5c2.8 0 5.1 2.3 5.1 5 0 2.8-2.3 5.1-5.1 5.1-2.8 0-5.1-2.3-5.1-5.1 0-2.7 2.3-5 5.1-5z"/>
	<path id="Layer" class="s0" d="m313.1 66.4c2.8 0 5.1 2.3 5.1 5 0 2.8-2.3 5.1-5.1 5.1-2.8 0-5.1-2.3-5.1-5.1 0-2.7 2.3-5 5.1-5z"/>
	<path id="Layer" class="s0" d="m299.9 33.3c2.8 0 5.1 2.3 5.1 5.1 0 2.8-2.3 5.1-5.1 5.1-2.8 0-5.1-2.3-5.1-5.1 0-2.8 2.3-5.1 5.1-5.1z"/>
	<path id="Layer" class="s0" d="m329.5 42.7c2.8 0 5.1 2.3 5.1 5 0 2.8-2.3 5.1-5.1 5.1-2.8 0-5.1-2.3-5.1-5.1 0-2.7 2.3-5 5.1-5z"/>
	<path id="Layer" class="s0" d="m262.1 19.6c2.8 0 5.1 2.3 5.1 5 0 2.8-2.3 5.1-5.1 5.1-2.8 0-5.1-2.3-5.1-5.1 0-2.7 2.3-5 5.1-5z"/>
	<path id="Layer" class="s0" d="m504 217c2.7 0 5 2.3 5 5.1 0 2.7-2.3 5-5 5-2.8 0-5.1-2.3-5.1-5 0-2.8 2.3-5.1 5.1-5.1z"/>
	<path id="Layer" class="s0" d="m130.3 375.1c2.8 0 5.1 2.3 5.1 5.1 0 2.8-2.3 5.1-5.1 5.1-2.8 0-5.1-2.3-5.1-5.1 0-2.8 2.3-5.1 5.1-5.1z"/>
	<path id="Layer" class="s0" d="m357.3 81.5c2.7 0 5 2.3 5 5.1 0 2.8-2.3 5.1-5.1 5.1-2.7 0-5-2.3-5-5.1 0-2.8 2.3-5.1 5-5.1z"/>
	<path id="Layer" class="s0" d="m1032.1 61.7c2.8 0 5.1 2.3 5.1 5.1 0 2.8-2.3 5.1-5.1 5.1-2.8 0-5.1-2.3-5.1-5.1 0-2.8 2.3-5.1 5.1-5.1z"/>
	<path id="Layer" class="s0" d="m1055.1 147.5c2.8 0 5.1 2.3 5.1 5.1 0 2.7-2.3 5-5.1 5-2.8 0-5.1-2.3-5.1-5 0-2.8 2.3-5.1 5.1-5.1z"/>
	<path id="Layer" class="s0" d="m718.8 395.5c2.8 0 5.1 2.3 5.1 5.1 0 2.7-2.3 5-5.1 5-2.8 0-5.1-2.3-5.1-5 0-2.8 2.3-5.1 5.1-5.1z"/>
	<path id="Layer" class="s0" d="m388.6 618.9c2.8 0 5.1 2.3 5.1 5.1 0 2.8-2.3 5.1-5.1 5.1-2.8 0-5.1-2.3-5.1-5.1 0-2.8 2.3-5.1 5.1-5.1z"/>
	<path id="Layer" class="s0" d="m546.1 448.9c2.8 0 5.1 2.3 5.1 5.1 0 2.8-2.3 5.1-5.1 5.1-2.7 0-5-2.3-5-5.1 0-2.8 2.3-5.1 5-5.1z"/>
	<path id="Layer" class="s0" d="m498.9 409.7c2.7 0 5 2.3 5 5.1 0 2.8-2.3 5.1-5 5.1-2.8 0-5.1-2.3-5.1-5.1 0-2.8 2.3-5.1 5.1-5.1z"/>
	<path id="Layer" class="s0" d="m290.6 331.3c2.8 0 5.1 2.3 5.1 5.1 0 2.8-2.3 5.1-5.1 5.1-2.7 0-5-2.3-5-5.1 0-2.8 2.3-5.1 5-5.1z"/>
	<path id="Layer" class="s0" d="m265.2 399.6c2.8 0 5.1 2.3 5.1 5.1 0 2.8-2.3 5.1-5.1 5.1-2.8 0-5.1-2.3-5.1-5.1 0-2.8 2.3-5.1 5.1-5.1z"/>
	<path id="Layer" class="s0" d="m910.8 251.9c2.8 0 5.1 2.3 5.1 5 0 2.8-2.3 5.1-5.1 5.1-2.8 0-5.1-2.3-5.1-5.1 0-2.7 2.3-5 5.1-5z"/>
	<path id="Layer" class="s0" d="m1032.1 688.8c2.8 0 5.1 2.3 5.1 5 0 2.8-2.3 5.1-5.1 5.1-2.8 0-5.1-2.3-5.1-5.1 0-2.7 2.3-5 5.1-5z"/>
	<path id="Layer" class="s0" d="m1547.1 749.4c2.8 0 5.1 2.3 5.1 5.1 0 2.7-2.3 5-5.1 5-2.8 0-5.1-2.3-5.1-5 0-2.8 2.3-5.1 5.1-5.1z"/>
	<path id="Layer" class="s0" d="m1175 641.1c2.8 0 5.1 2.3 5.1 5.1 0 2.7-2.3 5-5.1 5-2.8 0-5.1-2.3-5.1-5 0-2.8 2.3-5.1 5.1-5.1z"/>
	<path id="Layer" class="s0" d="m1510.3 761c2.8 0 5.1 2.3 5.1 5.1 0 2.8-2.3 5.1-5.1 5.1-2.8 0-5.1-2.3-5.1-5.1 0-2.8 2.3-5.1 5.1-5.1z"/>
	<path id="Layer" class="s0" d="m1338.9 715.2c2.8 0 5.1 2.3 5.1 5 0 2.8-2.3 5.1-5.1 5.1-2.8 0-5.1-2.3-5.1-5.1 0-2.7 2.3-5 5.1-5z"/>
	<path id="Layer" class="s0" d="m1380.5 941.9c2.8 0 5.1 2.3 5.1 5.1 0 2.8-2.3 5.1-5.1 5.1-2.8 0-5.1-2.3-5.1-5.1 0-2.8 2.3-5.1 5.1-5.1z"/>
	<path id="Layer" class="s0" d="m1358.8 987.2c2.8 0 5.1 2.3 5.1 5.1 0 2.8-2.3 5.1-5.1 5.1-2.8 0-5.1-2.3-5.1-5.1 0-2.8 2.3-5.1 5.1-5.1z"/>
	<path id="Layer" class="s0" d="m1530.3 1047.8c2.8 0 5.1 2.3 5.1 5.1 0 2.8-2.3 5.1-5.1 5.1-2.8 0-5.1-2.3-5.1-5.1 0-2.8 2.3-5.1 5.1-5.1z"/>
	<path id="Layer" class="s0" d="m1309.9 1125.2c2.8 0 5.1 2.3 5.1 5.1 0 2.8-2.3 5.1-5.1 5.1-2.8 0-5.1-2.3-5.1-5.1 0-2.8 2.3-5.1 5.1-5.1z"/>
	<path id="Layer" class="s0" d="m1407 1338.7c2.8 0 5.1 2.3 5.1 5 0 2.8-2.3 5.1-5.1 5.1-2.8 0-5.1-2.3-5.1-5.1 0-2.7 2.3-5 5.1-5z"/>
	<path id="Layer" class="s0" d="m1306.3 1226c2.8 0 5.1 2.3 5.1 5 0 2.8-2.3 5.1-5.1 5.1-2.8 0-5.1-2.3-5.1-5.1 0-2.7 2.3-5 5.1-5z"/>
	<path id="Layer" class="s0" d="m1384.2 1368.9c2.8 0 5.1 2.3 5.1 5 0 2.8-2.3 5.1-5.1 5.1-2.8 0-5.1-2.3-5.1-5.1 0-2.7 2.3-5 5.1-5z"/>
	<path id="Layer" class="s0" d="m1232.6 1266.6c2.8 0 5.1 2.3 5.1 5.1 0 2.8-2.3 5.1-5.1 5.1-2.8 0-5.1-2.3-5.1-5.1 0-2.8 2.3-5.1 5.1-5.1z"/>
	<path id="Layer" class="s0" d="m1152.1 1342.8c2.8 0 5.1 2.3 5.1 5.1 0 2.8-2.3 5.1-5.1 5.1-2.8 0-5.1-2.3-5.1-5.1 0-2.8 2.3-5.1 5.1-5.1z"/>
	<path id="Layer" class="s0" d="m1173.1 1227.7c2.8 0 5.1 2.3 5.1 5 0 2.8-2.3 5.1-5.1 5.1-2.8 0-5.1-2.3-5.1-5.1 0-2.7 2.3-5 5.1-5z"/>
	<path id="Layer" class="s0" d="m1179.6 1383.8c2.8 0 5.1 2.3 5.1 5.1 0 2.7-2.3 5-5.1 5-2.8 0-5.1-2.3-5.1-5 0-2.8 2.3-5.1 5.1-5.1z"/>
	<path id="Layer" class="s0" d="m1164.7 1441.7c2.8 0 5.1 2.3 5.1 5.1 0 2.8-2.3 5.1-5.1 5.1-2.8 0-5.1-2.3-5.1-5.1 0-2.8 2.3-5.1 5.1-5.1z"/>
	<path id="Layer" class="s0" d="m1310.4 1538.2c2.8 0 5.1 2.3 5.1 5.1 0 2.8-2.3 5.1-5.1 5.1-2.8 0-5.1-2.3-5.1-5.1 0-2.8 2.3-5.1 5.1-5.1z"/>
	<path id="Layer" class="s0" d="m1252.9 1503.5c2.8 0 5.1 2.3 5.1 5.1 0 2.8-2.3 5.1-5.1 5.1-2.8 0-5.1-2.3-5.1-5.1 0-2.8 2.3-5.1 5.1-5.1z"/>
	<path id="Layer" class="s0" d="m1152.1 1607.7c2.8 0 5.1 2.3 5.1 5.1 0 2.8-2.3 5.1-5.1 5.1-2.8 0-5.1-2.3-5.1-5.1 0-2.8 2.3-5.1 5.1-5.1z"/>
	<path id="Layer" class="s0" d="m1077.5 1640.4c2.8 0 5.1 2.3 5.1 5 0 2.8-2.3 5.1-5.1 5.1-2.8 0-5.1-2.3-5.1-5.1 0-2.7 2.3-5 5.1-5z"/>
	<path id="Layer" class="s0" d="m1005.9 1572.4c2.8 0 5.1 2.3 5.1 5.1 0 2.8-2.3 5.1-5.1 5.1-2.8 0-5.1-2.3-5.1-5.1 0-2.8 2.3-5.1 5.1-5.1z"/>
	<path id="Layer" class="s0" d="m774.2 1452.2c2.8 0 5.1 2.3 5.1 5.1 0 2.8-2.3 5.1-5.1 5.1-2.8 0-5.1-2.3-5.1-5.1 0-2.8 2.3-5.1 5.1-5.1z"/>
	<path id="Layer" class="s0" d="m1037 1452.2c2.8 0 5.1 2.3 5.1 5.1 0 2.8-2.3 5.1-5.1 5.1-2.8 0-5.1-2.3-5.1-5.1 0-2.8 2.3-5.1 5.1-5.1z"/>
	<path id="Layer" class="s0" d="m711.4 1342.8c2.8 0 5.1 2.3 5.1 5.1 0 2.8-2.3 5.1-5.1 5.1-2.8 0-5.1-2.3-5.1-5.1 0-2.8 2.3-5.1 5.1-5.1z"/>
	<path id="Layer" class="s0" d="m998.7 1634.6c2.8 0 5.1 2.3 5.1 5.1 0 2.7-2.3 5-5.1 5-2.8 0-5.1-2.3-5.1-5 0-2.8 2.3-5.1 5.1-5.1z"/>
	<path id="Layer" class="s0" d="m985.2 1623.6c2.8 0 5.1 2.3 5.1 5.1 0 2.8-2.3 5.1-5.1 5.1-2.8 0-5.1-2.3-5.1-5.1 0-2.8 2.3-5.1 5.1-5.1z"/>
	<path id="Layer" class="s0" d="m1054.1 1605.6c2.8 0 5.1 2.3 5.1 5.1 0 2.7-2.3 5-5.1 5-2.8 0-5.1-2.3-5.1-5 0-2.8 2.3-5.1 5.1-5.1z"/>
	<path id="Layer" class="s0" d="m705.8 1681.7c2.8 0 5.1 2.3 5.1 5.1 0 2.8-2.3 5.1-5.1 5.1-2.8 0-5.1-2.3-5.1-5.1 0-2.8 2.3-5.1 5.1-5.1z"/>
	<path id="Layer" class="s0" d="m704.4 1655.2c2.8 0 5.1 2.3 5.1 5.1 0 2.8-2.3 5.1-5.1 5.1-2.8 0-5.1-2.3-5.1-5.1 0-2.8 2.3-5.1 5.1-5.1z"/>
	<path id="Layer" class="s0" d="m1098.1 1686.5c2.8 0 5.1 2.3 5.1 5.1 0 2.8-2.3 5.1-5.1 5.1-2.8 0-5.1-2.3-5.1-5.1 0-2.8 2.3-5.1 5.1-5.1z"/>
	<path id="Layer" class="s0" d="m1087.3 1670.2c2.8 0 5.1 2.3 5.1 5.1 0 2.8-2.3 5.1-5.1 5.1-2.8 0-5.1-2.3-5.1-5.1 0-2.8 2.3-5.1 5.1-5.1z"/>
	<path id="Layer" class="s0" d="m1179.6 1664.1c2.8 0 5.1 2.3 5.1 5.1 0 2.8-2.3 5.1-5.1 5.1-2.8 0-5.1-2.3-5.1-5.1 0-2.8 2.3-5.1 5.1-5.1z"/>
</svg>